<svg width="46" height="45" viewBox="0 0 46 45" fill="none" xmlns="http://www.w3.org/2000/svg">
<path d="M20.3217 2.0451C21.0194 -0.681705 24.9806 -0.681699 25.6783 2.04511L25.8839 2.84873C26.4098 4.90438 29.0403 5.59389 30.5465 4.0709L31.1353 3.47551C33.1332 1.45527 36.5637 3.39284 35.7742 6.09557L35.5415 6.8921C34.9463 8.9296 36.872 10.8134 38.9548 10.2311L39.769 10.0035C42.5318 9.23117 44.5124 12.5871 42.4473 14.5416L41.8386 15.1176C40.2818 16.591 40.9866 19.1643 43.088 19.6788L43.9095 19.8799C46.6969 20.5624 46.6969 24.4376 43.9094 25.1201L43.088 25.3212C40.9866 25.8357 40.2818 28.409 41.8386 29.8824L42.4473 30.4584C44.5124 32.4129 42.5318 35.7688 39.769 34.9965L38.9547 34.7689C36.872 34.1866 34.9463 36.0704 35.5415 38.1079L35.7742 38.9044C36.5637 41.6072 33.1332 43.5447 31.1353 41.5245L30.5465 40.9291C29.0403 39.4061 26.4098 40.0956 25.8839 42.1513L25.6783 42.9549C24.9806 45.6817 21.0194 45.6817 20.3217 42.9549L20.1161 42.1513C19.5902 40.0956 16.9597 39.4061 15.4535 40.9291L14.8647 41.5245C12.8668 43.5447 9.43631 41.6072 10.2258 38.9044L10.4585 38.1079C11.0537 36.0704 9.12803 34.1866 7.04525 34.7689L6.23102 34.9965C3.46823 35.7688 1.48762 32.4129 3.55275 30.4584L4.16137 29.8824C5.7182 28.409 5.01336 25.8357 2.91203 25.3212L2.09055 25.1201C-0.696854 24.4376 -0.696848 20.5624 2.09056 19.8799L2.91204 19.6788C5.01336 19.1643 5.71819 16.591 4.16136 15.1176L3.55274 14.5416C1.48761 12.5871 3.46824 9.23117 6.23103 10.0035L7.04526 10.2311C9.12803 10.8134 11.0537 8.92959 10.4585 6.89209L10.2258 6.09557C9.43631 3.39284 12.8669 1.45528 14.8647 3.47552L15.4535 4.0709C16.9597 5.59389 19.5902 4.90437 20.1161 2.84872L20.3217 2.0451ZM37.2973 23.9057H23.7184L15.5704 34.5334C17.7383 35.8171 20.281 36.556 23 36.556C30.4504 36.556 36.5764 31.0086 37.2973 23.9057ZM37.2973 21.0945C36.5764 13.9916 30.4504 8.44418 23 8.44418C20.281 8.44418 17.7383 9.18303 15.5704 10.4667L23.7184 21.0945H37.2973ZM14.5128 11.1572C14.4288 11.2174 14.3455 11.2786 14.2629 11.3405L14.5128 11.1572ZM13.2728 12.155C10.4195 14.7238 8.63175 18.4077 8.63175 22.5001C8.63175 26.5925 10.4195 30.2764 13.2728 32.8451L21.204 22.5001L13.2728 12.155ZM14.2629 33.6596C14.3455 33.7216 14.4289 33.7827 14.5129 33.843L14.2629 33.6596Z" fill="black"/>
</svg>
